HIERARCHY
ROOT Hips
{
	OFFSET 49.443501 5.088712 49.021000
	CHANNELS 6 Xposition Yposition Zposition Xrotation Yrotation Zrotation
	JOINT spine
	{
		OFFSET 0.000000 -0.359108 6.244801
		CHANNELS 3 Xrotation Yrotation Zrotation
		JOINT spine1
		{
			OFFSET 0.000000 -0.000001 9.069412
			CHANNELS 3 Xrotation Yrotation Zrotation
			JOINT spine2
			{
				OFFSET 0.000000 -0.000001 8.690140
				CHANNELS 3 Xrotation Yrotation Zrotation
				JOINT Neck
				{
					OFFSET 0.000000 -1.063724 22.311195
					CHANNELS 3 Xrotation Yrotation Zrotation
					JOINT Head
					{
						OFFSET 0.000000 -0.000001 6.740807
						CHANNELS 3 Xrotation Yrotation Zrotation
						End Site
						{
							OFFSET 0.000000 5.380967 16.316498
						}
					}
				}
				JOINT RightShoulder
				{
					OFFSET -3.659161 0.509512 9.384682
					CHANNELS 3 Xrotation Yrotation Zrotation
					JOINT RightArm
					{
						OFFSET 0.000000 -0.000002 12.308899
						CHANNELS 3 Xrotation Yrotation Zrotation
						JOINT RightArmRoll
						{
							OFFSET 0.000000 -0.000001 6.213753
							CHANNELS 3 Xrotation Yrotation Zrotation
							JOINT RightForeArm
							{
								OFFSET 0.000000 -0.000003 18.098503
								CHANNELS 3 Xrotation Yrotation Zrotation
								JOINT RightForeArmRoll
								{
									OFFSET 0.000000 -0.000001 6.972801
									CHANNELS 3 Xrotation Yrotation Zrotation
									JOINT RightHand
									{
										OFFSET 0.000000 -0.000002 13.992897
										CHANNELS 3 Xrotation Yrotation Zrotation
										End Site
										{
											OFFSET 0.000000 0.000000 0.100006
										}
									}
								}
							}
						}
					}
				}
				JOINT LeftShoulder
				{
					OFFSET 3.659161 0.509512 9.384682
					CHANNELS 3 Xrotation Yrotation Zrotation
					JOINT LeftArm
					{
						OFFSET 0.000000 -0.000002 12.308899
						CHANNELS 3 Xrotation Yrotation Zrotation
						JOINT LeftArmRoll
						{
							OFFSET 0.000000 -0.000001 6.213753
							CHANNELS 3 Xrotation Yrotation Zrotation
							JOINT LeftForeArm
							{
								OFFSET 0.000000 -0.000003 18.098503
								CHANNELS 3 Xrotation Yrotation Zrotation
								JOINT LeftForeArmRoll
								{
									OFFSET 0.000000 -0.000001 6.972801
									CHANNELS 3 Xrotation Yrotation Zrotation
									JOINT LeftHand
									{
										OFFSET 0.000000 -0.000002 13.992897
										CHANNELS 3 Xrotation Yrotation Zrotation
										End Site
										{
											OFFSET 0.000000 0.000000 0.100006
										}
									}
								}
							}
						}
					}
				}
			}
		}
	}
	JOINT RightUpLeg
	{
		OFFSET -5.535160 0.851455 -1.014999
		CHANNELS 3 Xrotation Yrotation Zrotation
		JOINT RightUpLegRoll
		{
			OFFSET 0.000000 -0.000003 16.407497
			CHANNELS 3 Xrotation Yrotation Zrotation
			JOINT RightLeg
			{
				OFFSET 0.000000 0.000003 -20.318100
				CHANNELS 3 Xrotation Yrotation Zrotation
				JOINT RightLegRoll
				{
					OFFSET 0.000000 -0.000003 20.384598
					CHANNELS 3 Xrotation Yrotation Zrotation
					JOINT RightFoot
					{
						OFFSET 0.000000 -0.000003 16.966797
						CHANNELS 3 Xrotation Yrotation Zrotation
						JOINT RightToeBase
						{
							OFFSET 0.000000 -0.000002 14.183403
							CHANNELS 3 Xrotation Yrotation Zrotation
							End Site
							{
								OFFSET 0.006012 0.791744 6.868896
							}
						}
					}
				}
			}
		}
	}
	JOINT LeftUpLeg
	{
		OFFSET 5.535160 0.851455 -1.014999
		CHANNELS 3 Xrotation Yrotation Zrotation
		JOINT LeftUpLegRoll
		{
			OFFSET 0.000000 -0.000003 16.407604
			CHANNELS 3 Xrotation Yrotation Zrotation
			JOINT LeftLeg
			{
				OFFSET 0.000000 -0.000003 20.318100
				CHANNELS 3 Xrotation Yrotation Zrotation
				JOINT LeftLegRoll
				{
					OFFSET 0.000000 -0.000003 20.573097
					CHANNELS 3 Xrotation Yrotation Zrotation
					JOINT LeftFoot
					{
						OFFSET 0.000000 -0.000003 16.778297
						CHANNELS 3 Xrotation Yrotation Zrotation
						JOINT LeftToeBase
						{
							OFFSET 0.000000 -0.000002 14.183395
							CHANNELS 3 Xrotation Yrotation Zrotation
							End Site
							{
								OFFSET -0.026943 0.791745 6.868896
							}
						}
					}
				}
			}
		}
	}
}
MOTION
Frames: 13
Frame Time: 0.041667
49.434498 -1.676797 57.469097 36.462097 1.305888 -4.790786 1.573266 -0.945111 0.018947 7.145562 -1.888012 0.061954 8.790990 -1.887154 0.084582 21.448672 7.589547 -5.100123 3.388181 -8.252031 -4.376737 -5.010755 -40.149840 -3.911985 -36.044711 -145.069680 -65.724738 -0.000000 -0.000001 -0.000001 72.866876 -7.706948 1.706121 -0.000001 0.000001 -2.999990 -5.000221 -7.998706 0.000193 -5.296577 61.405696 6.420712 -78.859424 131.464134 106.824705 0.000001 0.000000 0.000002 66.918307 12.423834 -4.342650 -0.000000 -0.000005 3.000000 -5.000154 7.999842 -0.000031 -108.803623 -190.432299 0.325447 -179.999991 0.000005 -0.657004 97.596320 1.076612 -0.130474 -0.000001 0.000002 1.464070 74.269271 6.612482 2.553578 25.622835 -7.355622 0.250383 -110.824921 169.790675 -0.720041 -0.000003 -0.000004 -0.869864 -91.395185 0.097821 2.110188 0.000000 0.000001 -1.643571 73.683787 -7.414014 -0.234400 34.100078 7.278052 -1.089176 
49.432400 -1.660955 57.425591 36.367322 1.303801 -4.786226 1.572083 -0.943852 0.017692 7.142230 -1.885525 0.058011 8.787649 -1.884710 0.080609 21.426896 7.665431 -5.077578 3.412926 -8.274194 -4.353154 -4.994396 -40.111573 -3.885825 -36.027308 -145.099787 -65.656259 -0.000000 -0.000001 -0.000003 72.834187 -7.717951 1.713202 0.000003 0.000001 -2.999991 -5.000222 -7.998704 0.000190 -5.349588 61.348985 6.477518 -78.758365 131.478082 106.722047 -0.000002 -0.000001 0.000000 66.908615 12.445697 -4.354033 -0.000000 -0.000006 3.000002 -5.000157 7.999839 -0.000034 -108.782770 -190.433174 0.330138 -179.999991 0.000005 -0.658002 97.551145 1.089554 -0.118896 -0.000002 0.000002 1.465010 74.237449 6.612823 2.553001 25.623847 -7.355625 0.251932 -110.804096 169.824130 -0.687852 -0.000003 -0.000005 -0.869907 -91.438550 0.069013 2.076864 0.000003 0.000001 -1.642081 73.643202 -7.397270 -0.288865 34.104818 7.277889 -1.090418 
49.422398 -1.626344 57.392498 36.271846 1.301440 -4.782048 1.570878 -0.942579 0.016388 7.138855 -1.883019 0.054015 8.784272 -1.882257 0.076582 21.405854 7.741193 -5.055209 3.435898 -8.295511 -4.329950 -4.978094 -40.073198 -3.859745 -36.010560 -145.129171 -65.588620 0.000001 -0.000001 0.000003 72.799585 -7.729377 1.720777 -0.000001 0.000004 -2.999987 -5.000222 -7.998704 0.000195 -5.401486 61.293715 6.533167 -78.658125 131.491114 106.618379 -0.000001 0.000001 -0.000003 66.898213 12.467043 -4.365244 0.000001 -0.000006 3.000001 -5.000157 7.999837 -0.000033 -108.761590 -190.434389 0.335558 -179.999991 0.000005 -0.659996 97.505376 1.102726 -0.106331 -0.000002 0.000002 1.465970 74.205723 6.613139 2.552412 25.624858 -7.355626 0.253452 -110.782602 169.857174 -0.656121 -0.000002 -0.000004 -0.869962 -91.482557 0.040235 2.045518 0.000000 0.000002 -1.640650 73.603703 -7.380614 -0.342963 34.109149 7.277723 -1.091600 
49.415699 -1.591276 57.353096 36.175663 1.298745 -4.778103 1.569620 -0.941276 0.015058 7.135452 -1.880463 0.050042 8.780861 -1.879744 0.072577 21.385495 7.816060 -5.033174 3.456502 -8.315299 -4.307385 -4.962248 -40.035103 -3.834304 -35.993768 -145.159497 -65.520905 0.000000 0.000000 -0.000000 72.763337 -7.741073 1.728695 -0.000002 0.000002 -2.999988 -5.000218 -7.998707 0.000192 -5.451334 61.241696 6.586713 -78.561731 131.503326 106.516759 0.000001 0.000001 -0.000002 66.887305 12.487622 -4.376141 0.000000 -0.000009 2.999998 -5.000155 7.999839 -0.000032 -108.740450 -190.435974 0.341143 -179.999991 0.000005 -0.662004 97.458822 1.116087 -0.093748 -0.000002 0.000002 1.466960 74.174236 6.613481 2.551915 25.625861 -7.355619 0.254937 -110.760526 169.889699 -0.626052 -0.000006 -0.000004 -0.870034 -91.527458 0.011602 2.014158 0.000001 0.000001 -1.639280 73.565229 -7.364119 -0.396203 34.112977 7.277564 -1.092716 
49.419701 -1.565425 57.327595 36.078774 1.295675 -4.774242 1.568312 -0.939921 0.013723 7.132016 -1.877818 0.046168 8.777429 -1.877142 0.068672 21.365897 7.889271 -5.011658 3.474144 -8.332884 -4.285758 -4.947235 -39.997765 -3.810038 -35.977332 -145.189932 -65.453983 -0.000000 0.000000 -0.000001 72.725696 -7.752816 1.736597 0.000001 0.000004 -2.999988 -5.000221 -7.998706 0.000190 -5.498240 61.194984 6.637281 -78.471879 131.514719 106.420044 0.000002 0.000001 -0.000001 66.875707 12.507330 -4.386545 0.000000 -0.000007 3.000000 -5.000158 7.999839 -0.000033 -108.719222 -190.437709 0.346231 -179.999991 0.000005 -0.663999 97.411147 1.129833 -0.080183 -0.000001 0.000002 1.467990 74.143213 6.613874 2.551297 25.626882 -7.355622 0.256387 -110.738205 169.921501 -0.596658 -0.000004 -0.000004 -0.870128 -91.573309 -0.016859 1.980771 0.000003 0.000001 -1.637961 73.527690 -7.347859 -0.448606 34.116610 7.277406 -1.093797 
49.410095 -1.549446 57.287697 35.981283 1.292171 -4.770349 1.566950 -0.938498 0.012405 7.128537 -1.875054 0.042473 8.773951 -1.874422 0.064942 21.346993 7.960070 -4.990835 3.488199 -8.347575 -4.265348 -4.933396 -39.961582 -3.787482 -35.961561 -145.219657 -65.388632 -0.000001 -0.000001 -0.000001 72.686921 -7.764527 1.744616 0.000000 0.000004 -2.999989 -5.000220 -7.998701 0.000195 -5.541289 61.155533 6.684000 -78.391720 131.525087 106.331722 -0.000001 0.000001 -0.000000 66.863604 12.526017 -4.396497 0.000002 -0.000006 3.000003 -5.000151 7.999840 -0.000032 -108.698205 -190.439430 0.351549 -179.999991 0.000005 -0.666007 97.362161 1.143787 -0.067578 -0.000002 0.000002 1.469061 74.112757 6.614286 2.550647 25.627782 -7.355621 0.257789 -110.715727 169.952551 -0.568929 -0.000005 -0.000004 -0.870248 -91.620280 -0.045108 1.950357 0.000002 0.000002 -1.636700 73.491080 -7.331876 -0.499878 34.119944 7.277254 -1.094839 
49.396496 -1.520348 57.238396 35.883082 1.288176 -4.766264 1.565510 -0.936987 0.011125 7.125036 -1.872141 0.039036 8.770441 -1.871544 0.061467 21.328763 8.027714 -4.970891 3.498092 -8.358698 -4.246444 -4.921132 -39.926923 -3.767181 -35.946435 -145.248645 -65.325254 0.000003 -0.000000 -0.000000 72.647306 -7.776048 1.752599 -0.000004 0.000001 -2.999989 -5.000221 -7.998705 0.000193 -5.579593 61.125282 6.725988 -78.325317 131.534198 106.256194 0.000000 -0.000001 -0.000001 66.851091 12.543492 -4.405845 -0.000002 -0.000006 3.000002 -5.000154 7.999841 -0.000030 -108.677469 -190.441083 0.356382 -179.999991 0.000004 -0.667004 97.311358 1.157969 -0.053987 -0.000002 0.000002 1.470181 74.083087 6.614759 2.550061 25.628693 -7.355629 0.259175 -110.693263 169.982672 -0.543000 -0.000003 -0.000004 -0.870400 -91.668707 -0.073042 1.918945 0.000001 0.000001 -1.635490 73.455324 -7.316212 -0.550029 34.123263 7.277106 -1.095858 
49.399097 -1.491568 57.196400 35.784372 1.283638 -4.761859 1.563984 -0.935370 0.009905 7.121507 -1.869030 0.035927 8.766917 -1.868468 0.058321 21.311244 8.091426 -4.952005 3.503202 -8.365570 -4.229343 -4.910793 -39.894080 -3.749646 -35.932379 -145.276088 -65.264739 0.000001 -0.000002 0.000001 72.607083 -7.787195 1.760391 0.000000 0.000006 -2.999989 -5.000218 -7.998705 0.000195 -5.612234 61.106089 6.762350 -78.273975 131.542367 106.194606 0.000002 0.000001 -0.000001 66.838114 12.559627 -4.414713 0.000000 -0.000006 3.000003 -5.000157 7.999840 -0.000034 -108.657258 -190.442586 0.362228 -179.999991 0.000005 -0.668998 97.258588 1.172588 -0.040377 -0.000003 0.000002 1.471360 74.054243 6.615344 2.549343 25.629604 -7.355630 0.260517 -110.670887 170.011810 -0.517985 -0.000005 -0.000004 -0.870587 -91.718464 -0.100629 1.887504 0.000003 0.000001 -1.634330 73.420340 -7.300941 -0.598780 34.126480 7.276971 -1.096841 
49.388802 -1.456755 57.173195 35.685040 1.278487 -4.756986 1.562359 -0.933631 0.008768 7.117947 -1.865690 0.033228 8.763361 -1.865155 0.055580 21.294402 8.150451 -4.934350 3.502941 -8.367530 -4.214310 -4.902768 -39.863538 -3.735430 -35.919070 -145.302849 -65.206552 0.000001 -0.000000 -0.000000 72.566607 -7.797780 1.767942 -0.000002 -0.000002 -2.999991 -5.000217 -7.998700 0.000196 -5.638369 61.100079 6.792294 -78.241203 131.549348 106.150586 0.000001 -0.000000 0.000001 66.824788 12.574207 -4.422760 0.000002 -0.000005 3.000003 -5.000148 7.999842 -0.000031 -108.637690 -190.443788 0.367600 -179.999991 0.000004 -0.671006 97.203468 1.187543 -0.026750 -0.000002 0.000002 1.472609 74.026594 6.615987 2.548562 25.630514 -7.355626 0.261839 -110.648860 170.039800 -0.495903 -0.000003 -0.000004 -0.870816 -91.769998 -0.127780 1.856031 0.000003 0.000001 -1.633220 73.386141 -7.286131 -0.645937 34.129919 7.276839 -1.097842 
49.387295 -1.424989 57.133698 35.585111 1.272677 -4.751515 1.560624 -0.931749 0.007736 7.114371 -1.862093 0.031015 8.759788 -1.861586 0.053324 21.278174 8.204035 -4.918099 3.496699 -8.363892 -4.201643 -4.897398 -39.835583 -3.725048 -35.906830 -145.328080 -65.151829 0.000001 -0.000001 -0.000000 72.526179 -7.807675 1.775195 0.000000 0.000001 -2.999987 -5.000218 -7.998706 0.000196 -5.657080 61.109122 6.814894 -78.230466 131.554962 106.128203 0.000000 0.000002 -0.000003 66.811059 12.587118 -4.430106 0.000000 -0.000006 3.000000 -5.000152 7.999845 -0.000033 -108.618907 -190.444553 0.371958 -179.999991 0.000005 -0.673001 97.145678 1.202863 -0.013103 -0.000002 0.000002 1.473919 74.000202 6.616737 2.547724 25.631426 -7.355626 0.263131 -110.627454 170.066533 -0.475735 -0.000005 -0.000004 -0.871090 -91.823274 -0.154481 1.825547 0.000002 0.000002 -1.632160 73.352639 -7.271796 -0.691410 34.133450 7.276722 -1.098820 
49.383495 -1.414277 57.069595 35.485568 1.265883 -4.745196 1.558641 -0.929692 0.006653 7.110472 -1.858208 0.029013 8.755880 -1.857731 0.051277 21.262427 8.253307 -4.903319 3.484263 -8.355715 -4.191281 -4.895720 -39.811270 -3.719972 -35.896811 -145.351207 -65.102734 -0.000002 -0.000000 -0.000003 72.484973 -7.817300 1.782325 -0.000001 0.000004 -2.999989 -5.000220 -7.998701 0.000193 -5.666699 61.134496 6.828325 -78.242426 131.557940 106.126803 0.000001 0.000001 -0.000001 66.797597 12.597673 -4.436371 0.000001 -0.000005 3.000001 -5.000155 7.999838 -0.000031 -108.602057 -190.444730 0.376312 -179.999991 0.000005 -0.674995 97.084671 1.219292 0.002519 -0.000002 0.000002 1.475420 73.974944 6.617560 2.546829 25.632431 -7.355617 0.264636 -110.606963 170.092570 -0.457939 -0.000006 -0.000004 -0.871421 -91.878270 -0.180391 1.796048 0.000005 0.000001 -1.631160 73.320380 -7.258244 -0.734410 34.136872 7.276604 -1.099773 
49.382099 -1.380144 57.033096 35.386811 1.257936 -4.737979 1.556288 -0.927459 0.005380 7.106025 -1.854069 0.026929 8.751422 -1.853601 0.049141 21.247260 8.299920 -4.889849 3.466110 -8.344573 -4.182866 -4.898017 -39.790592 -3.720636 -35.888918 -145.374115 -65.059014 0.000001 -0.000001 0.000004 72.442113 -7.827153 1.789899 -0.000000 0.000002 -2.999989 -5.000221 -7.998705 0.000191 -5.667014 61.175095 6.832248 -78.275450 131.557257 106.144200 0.000001 0.000001 -0.000001 66.784797 12.605321 -4.441109 0.000001 -0.000007 3.000003 -5.000152 7.999838 -0.000034 -108.587816 -190.444389 0.378413 -179.999991 0.000005 -0.677003 97.020139 1.237201 0.019117 -0.000002 0.000002 1.477191 73.950404 6.618575 2.545820 25.633649 -7.355627 0.266530 -110.587552 170.118320 -0.444389 -0.000003 -0.000004 -0.871813 -91.934742 -0.205326 1.766535 0.000003 0.000002 -1.630200 73.289924 -7.245495 -0.774803 34.139806 7.276515 -1.100658 
49.376102 -1.341688 57.016296 35.288534 1.249008 -4.730112 1.553631 -0.925077 0.003965 7.101154 -1.849692 0.024818 8.746548 -1.849256 0.046978 21.232652 8.344025 -4.877561 3.442797 -8.330550 -4.176205 -4.903624 -39.773062 -3.726062 -35.883078 -145.395821 -65.020539 0.000003 0.000001 -0.000001 72.397662 -7.837145 1.797529 0.000000 0.000002 -2.999991 -5.000220 -7.998704 0.000190 -5.659367 61.228746 6.828027 -78.327373 131.553432 106.178596 0.000001 0.000000 -0.000000 66.772203 12.610732 -4.444738 0.000001 -0.000006 3.000001 -5.000153 7.999840 -0.000030 -108.575638 -190.443651 0.379246 -179.999991 0.000005 -0.679995 96.952664 1.256213 0.036683 -0.000002 0.000002 1.479160 73.926655 6.619644 2.544671 25.635160 -7.355622 0.268747 -110.568967 170.143714 -0.433593 -0.000003 -0.000004 -0.872258 -91.992546 -0.229436 1.738008 0.000001 0.000001 -1.629310 73.261033 -7.233524 -0.812703 34.142227 7.276441 -1.101474 
